<svg xmlns="http://www.w3.org/2000/svg" version="1.1" xmlns:xlink="http://www.w3.org/1999/xlink" xmlns:svgjs="http://svgjs.com/svgjs" width="1000" height="400" preserveAspectRatio="none" viewBox="0 0 1000 400"><g mask="url(&quot;#SvgjsMask16384&quot;)" fill="none"><path d="M685.7 361.11 L712.51 275.15000000000003L666.6274181709423 285.65241817094227z" stroke="rgba(241, 241, 241, 0.18)" stroke-width="1.49" stroke-dasharray="4, 4"></path><rect width="228" height="228" clip-path="url(&quot;#SvgjsClipPath16385&quot;)" x="823.95" y="47.72" fill="url(#SvgjsPattern16386)" transform="rotate(205.78, 937.95, 161.72)"></rect><rect width="140.88" height="140.88" clip-path="url(&quot;#SvgjsClipPath16387&quot;)" x="823.22" y="296.84" fill="url(#SvgjsPattern16388)" transform="rotate(317.73, 893.66, 367.28)"></rect><rect width="204" height="204" clip-path="url(&quot;#SvgjsClipPath16389&quot;)" x="71.62" y="92.55" fill="url(#SvgjsPattern16390)" transform="rotate(324.51, 173.62, 194.55)"></rect><rect width="127.44" height="127.44" clip-path="url(&quot;#SvgjsClipPath16391&quot;)" x="485.14" y="-18.15" fill="url(#SvgjsPattern16392)" transform="rotate(211.45, 548.86, 45.57)"></rect><rect width="242" height="242" clip-path="url(&quot;#SvgjsClipPath16393&quot;)" x="79.57" y="-75.75" fill="url(#SvgjsPattern16394)" transform="rotate(36.43, 200.57, 45.25)"></rect><path d="M799.05 290.73 L793.75 254.7L773.5258976121635 295.58910238783653z" stroke="rgba(241, 241, 241, 0.18)" stroke-width="1" stroke-dasharray="3, 3"></path><path d="M280.57 303.99 L344.21 298.53L350.034242414161 338.904242414161z" fill="rgba(241, 241, 241, 0.18)"></path><rect width="267.84000000000003" height="267.84000000000003" clip-path="url(&quot;#SvgjsClipPath16395&quot;)" x="646.21" y="-38.92" fill="url(#SvgjsPattern16396)" transform="rotate(143.73, 780.13, 95)"></rect><circle r="33.333333333333336" cx="49.72" cy="81.06" fill="rgba(241, 241, 241, 0.18)"></circle><path d="M246.08 31.25a5.6 5.6 0 1 0 4.22 10.38 5.6 5.6 0 1 0-4.22-10.38zM252.12 46.07a5.6 5.6 0 1 0 4.23 10.37 5.6 5.6 0 1 0-4.23-10.37zM258.16 60.89a5.6 5.6 0 1 0 4.23 10.37 5.6 5.6 0 1 0-4.23-10.37zM264.2 75.7a5.6 5.6 0 1 0 4.23 10.37 5.6 5.6 0 1 0-4.23-10.37zM219.18 7.66a5.6 5.6 0 1 0 4.23 10.37 5.6 5.6 0 1 0-4.23-10.37zM225.22 22.48a5.6 5.6 0 1 0 4.23 10.37 5.6 5.6 0 1 0-4.23-10.37zM231.26 37.29a5.6 5.6 0 1 0 4.23 10.38 5.6 5.6 0 1 0-4.23-10.38zM237.3 52.11a5.6 5.6 0 1 0 4.23 10.37 5.6 5.6 0 1 0-4.23-10.37zM192.28-15.93a5.6 5.6 0 1 0 4.23 10.37 5.6 5.6 0 1 0-4.23-10.37zM198.32-1.11a5.6 5.6 0 1 0 4.23 10.37 5.6 5.6 0 1 0-4.23-10.37zM204.36 13.7a5.6 5.6 0 1 0 4.23 10.37 5.6 5.6 0 1 0-4.23-10.37zM210.4 28.52a5.6 5.6 0 1 0 4.23 10.37 5.6 5.6 0 1 0-4.23-10.37z" fill="rgba(241, 241, 241, 0.18)"></path><rect width="108" height="108" clip-path="url(&quot;#SvgjsClipPath16397&quot;)" x="177.42" y="153.29" fill="url(#SvgjsPattern16398)" transform="rotate(13.32, 231.42, 207.29)"></rect></g><defs><mask id="SvgjsMask16384"><rect width="1000" height="400" fill="#ffffff"></rect></mask><pattern x="0" y="0" width="6" height="6" patternUnits="userSpaceOnUse" id="SvgjsPattern16386"><path d="M0 6L3 0L6 6" stroke="rgba(241, 241, 241, 0.18)" fill="none"></path></pattern><clipPath id="SvgjsClipPath16385"><circle r="57" cx="937.95" cy="161.72"></circle></clipPath><pattern x="0" y="0" width="11.74" height="11.74" patternUnits="userSpaceOnUse" id="SvgjsPattern16388"><path d="M5.87 1L5.87 10.74M1 5.87L10.74 5.87" stroke="rgba(241, 241, 241, 0.18)" fill="none" stroke-width="4.11"></path></pattern><clipPath id="SvgjsClipPath16387"><circle r="35.22" cx="893.66" cy="367.28"></circle></clipPath><pattern x="0" y="0" width="6" height="6" patternUnits="userSpaceOnUse" id="SvgjsPattern16390"><path d="M3 1L3 5M1 3L5 3" stroke="rgba(241, 241, 241, 0.18)" fill="none" stroke-width="1.14"></path></pattern><clipPath id="SvgjsClipPath16389"><circle r="51" cx="173.62" cy="194.55"></circle></clipPath><pattern x="0" y="0" width="10.62" height="10.62" patternUnits="userSpaceOnUse" id="SvgjsPattern16392"><path d="M5.31 1L5.31 9.62M1 5.31L9.62 5.31" stroke="rgba(241, 241, 241, 0.18)" fill="none" stroke-width="1.37"></path></pattern><clipPath id="SvgjsClipPath16391"><circle r="31.86" cx="548.86" cy="45.57"></circle></clipPath><pattern x="0" y="0" width="242" height="12.1" patternUnits="userSpaceOnUse" id="SvgjsPattern16394"><rect width="242" height="6.05" x="0" y="0" fill="rgba(241, 241, 241, 0.18)"></rect><rect width="242" height="6.05" x="0" y="6.05" fill="rgba(0, 0, 0, 0)"></rect></pattern><clipPath id="SvgjsClipPath16393"><circle r="60.5" cx="200.57" cy="45.25"></circle></clipPath><pattern x="0" y="0" width="7.44" height="7.44" patternUnits="userSpaceOnUse" id="SvgjsPattern16396"><path d="M0 7.44L3.72 0L7.44 7.44" stroke="rgba(241, 241, 241, 0.18)" fill="none"></path></pattern><clipPath id="SvgjsClipPath16395"><circle r="66.96000000000001" cx="780.13" cy="95"></circle></clipPath><pattern x="0" y="0" width="6" height="6" patternUnits="userSpaceOnUse" id="SvgjsPattern16398"><path d="M3 1L3 5M1 3L5 3" stroke="rgba(241, 241, 241, 0.18)" fill="none" stroke-width="1"></path></pattern><clipPath id="SvgjsClipPath16397"><circle r="27" cx="231.42" cy="207.29"></circle></clipPath></defs></svg>