<svg xmlns="http://www.w3.org/2000/svg" version="1.1" xmlns:xlink="http://www.w3.org/1999/xlink" xmlns:svgjs="http://svgjs.com/svgjs" width="350" height="1000" preserveAspectRatio="none" viewBox="0 0 350 1000"><g mask="url(&quot;#SvgjsMask19098&quot;)" fill="none"><path d="M328.98 658.67 L254.25 687.61L242.37549606635267 623.9004960663526z" fill="rgba(241, 241, 241, 0.18)"></path><rect width="60" height="60" clip-path="url(&quot;#SvgjsClipPath19099&quot;)" x="-8.48" y="576.26" fill="url(#SvgjsPattern19100)" transform="rotate(249.79, 21.52, 606.26)"></rect><path d="M71.33 351.46000000000004 L125.86 329.38L71.16277511202006 312.9877751120201z" stroke="rgba(241, 241, 241, 0.18)" stroke-width="1.25"></path><path d="M265.14 503.2a5.6 5.6 0 1 0 2.68-10.87 5.6 5.6 0 1 0-2.68 10.87zM268.97 487.67a5.6 5.6 0 1 0 2.69-10.87 5.6 5.6 0 1 0-2.69 10.87zM272.81 472.14a5.6 5.6 0 1 0 2.68-10.88 5.6 5.6 0 1 0-2.68 10.88zM276.64 456.6a5.6 5.6 0 1 0 2.69-10.87 5.6 5.6 0 1 0-2.69 10.87zM273 538.11a5.6 5.6 0 1 0 2.68-10.88 5.6 5.6 0 1 0-2.68 10.88zM276.83 522.57a5.6 5.6 0 1 0 2.69-10.87 5.6 5.6 0 1 0-2.69 10.87zM280.67 507.04a5.6 5.6 0 1 0 2.69-10.88 5.6 5.6 0 1 0-2.69 10.88zM284.51 491.5a5.6 5.6 0 1 0 2.68-10.87 5.6 5.6 0 1 0-2.68 10.87zM280.86 573.01a5.6 5.6 0 1 0 2.69-10.88 5.6 5.6 0 1 0-2.69 10.88zM284.7 557.47a5.6 5.6 0 1 0 2.68-10.87 5.6 5.6 0 1 0-2.68 10.87zM288.53 541.94a5.6 5.6 0 1 0 2.69-10.87 5.6 5.6 0 1 0-2.69 10.87zM292.37 526.41a5.6 5.6 0 1 0 2.68-10.88 5.6 5.6 0 1 0-2.68 10.88z" fill="rgba(241, 241, 241, 0.18)"></path><circle r="41.08664465117427" cx="151.16" cy="104.53" fill="rgba(241, 241, 241, 0.18)"></circle><path d="M119.8 162.53a5.6 5.6 0 1 0 10.34 4.32 5.6 5.6 0 1 0-10.34-4.32zM134.57 168.7a5.6 5.6 0 1 0 10.33 4.31 5.6 5.6 0 1 0-10.33-4.31zM149.33 174.86a5.6 5.6 0 1 0 10.34 4.32 5.6 5.6 0 1 0-10.34-4.32zM164.1 181.03a5.6 5.6 0 1 0 10.33 4.32 5.6 5.6 0 1 0-10.33-4.32zM84.11 164.96a5.6 5.6 0 1 0 10.33 4.32 5.6 5.6 0 1 0-10.33-4.32zM98.87 171.13a5.6 5.6 0 1 0 10.34 4.31 5.6 5.6 0 1 0-10.34-4.31zM113.64 177.29a5.6 5.6 0 1 0 10.33 4.32 5.6 5.6 0 1 0-10.33-4.32zM128.4 183.46a5.6 5.6 0 1 0 10.34 4.32 5.6 5.6 0 1 0-10.34-4.32zM48.42 167.39a5.6 5.6 0 1 0 10.33 4.32 5.6 5.6 0 1 0-10.33-4.32zM63.18 173.56a5.6 5.6 0 1 0 10.33 4.31 5.6 5.6 0 1 0-10.33-4.31zM77.94 179.72a5.6 5.6 0 1 0 10.34 4.32 5.6 5.6 0 1 0-10.34-4.32zM92.71 185.89a5.6 5.6 0 1 0 10.33 4.32 5.6 5.6 0 1 0-10.33-4.32z" fill="rgba(241, 241, 241, 0.18)"></path><path d="M160.76999999999998 210.91000000000003 L154.19 178.17000000000002L145.02873330830252 206.9912666916975z" stroke="rgba(241, 241, 241, 0.18)" stroke-width="1" stroke-dasharray="4, 4"></path><circle r="29.166666666666668" cx="88.72" cy="866.61" stroke="rgba(241, 241, 241, 0.18)" stroke-width="1"></circle><rect width="60" height="60" clip-path="url(&quot;#SvgjsClipPath19101&quot;)" x="24.15" y="312.99" fill="url(#SvgjsPattern19102)" transform="rotate(81.34, 54.15, 342.99)"></rect><rect width="156" height="156" clip-path="url(&quot;#SvgjsClipPath19103&quot;)" x="154.38" y="403.91" fill="url(#SvgjsPattern19104)" transform="rotate(83.32, 232.38, 481.91)"></rect><rect width="108" height="108" clip-path="url(&quot;#SvgjsClipPath19105&quot;)" x="-30.77" y="242.19" fill="url(#SvgjsPattern19106)" transform="rotate(39.18, 23.23, 296.19)"></rect><circle r="44.61013415452792" cx="61.23" cy="602.62" fill="rgba(241, 241, 241, 0.18)"></circle><rect width="132.8" height="132.8" clip-path="url(&quot;#SvgjsClipPath19107&quot;)" x="223.42" y="36.54" fill="url(#SvgjsPattern19108)" transform="rotate(135.53, 289.82, 102.94)"></rect></g><defs><mask id="SvgjsMask19098"><rect width="350" height="1000" fill="#ffffff"></rect></mask><pattern x="0" y="0" width="6" height="6" patternUnits="userSpaceOnUse" id="SvgjsPattern19100"><path d="M0 6L3 0L6 6" stroke="rgba(241, 241, 241, 0.18)" fill="none"></path></pattern><clipPath id="SvgjsClipPath19099"><circle r="15" cx="21.52" cy="606.26"></circle></clipPath><pattern x="0" y="0" width="6" height="6" patternUnits="userSpaceOnUse" id="SvgjsPattern19102"><path d="M3 1L3 5M1 3L5 3" stroke="rgba(241, 241, 241, 0.18)" fill="none" stroke-width="1.59"></path></pattern><clipPath id="SvgjsClipPath19101"><circle r="15" cx="54.15" cy="342.99"></circle></clipPath><pattern x="0" y="0" width="156" height="6" patternUnits="userSpaceOnUse" id="SvgjsPattern19104"><rect width="156" height="3" x="0" y="0" fill="rgba(241, 241, 241, 0.18)"></rect><rect width="156" height="3" x="0" y="3" fill="rgba(0, 0, 0, 0)"></rect></pattern><clipPath id="SvgjsClipPath19103"><circle r="39" cx="232.38" cy="481.91"></circle></clipPath><pattern x="0" y="0" width="108" height="6" patternUnits="userSpaceOnUse" id="SvgjsPattern19106"><rect width="108" height="3" x="0" y="0" fill="rgba(241, 241, 241, 0.18)"></rect><rect width="108" height="3" x="0" y="3" fill="rgba(0, 0, 0, 0)"></rect></pattern><clipPath id="SvgjsClipPath19105"><circle r="27" cx="23.23" cy="296.19"></circle></clipPath><pattern x="0" y="0" width="13.28" height="13.28" patternUnits="userSpaceOnUse" id="SvgjsPattern19108"><path d="M6.64 1L6.64 12.28M1 6.64L12.28 6.64" stroke="rgba(241, 241, 241, 0.18)" fill="none" stroke-width="1"></path></pattern><clipPath id="SvgjsClipPath19107"><circle r="33.2" cx="289.82" cy="102.94"></circle></clipPath></defs></svg>