<svg xmlns="http://www.w3.org/2000/svg" version="1.1" xmlns:xlink="http://www.w3.org/1999/xlink" xmlns:svgjs="http://svgjs.com/svgjs" width="1000" height="600" preserveAspectRatio="none" viewBox="0 0 1000 600"><g mask="url(&quot;#SvgjsMask15461&quot;)" fill="none"><rect width="178.56" height="178.56" clip-path="url(&quot;#SvgjsClipPath15462&quot;)" x="261.62" y="286.01" fill="url(#SvgjsPattern15463)" transform="rotate(261.75, 350.9, 375.29)"></rect><rect width="240.16000000000003" height="240.16000000000003" clip-path="url(&quot;#SvgjsClipPath15464&quot;)" x="18.44" y="328.14" fill="url(#SvgjsPattern15465)" transform="rotate(328.07, 138.52, 448.22)"></rect><rect width="183" height="183" clip-path="url(&quot;#SvgjsClipPath15466&quot;)" x="54.31" y="428.12" fill="url(#SvgjsPattern15467)" transform="rotate(308.76, 145.81, 519.62)"></rect><rect width="60" height="60" clip-path="url(&quot;#SvgjsClipPath15468&quot;)" x="683.77" y="107.58" fill="url(#SvgjsPattern15469)" transform="rotate(191.66, 713.77, 137.58)"></rect><path d="M266.67 216.28a5.6 5.6 0 1 0 5.12 9.96 5.6 5.6 0 1 0-5.12-9.96zM273.98 230.51a5.6 5.6 0 1 0 5.12 9.96 5.6 5.6 0 1 0-5.12-9.96zM281.29 244.74a5.6 5.6 0 1 0 5.11 9.97 5.6 5.6 0 1 0-5.11-9.97zM288.6 258.98a5.6 5.6 0 1 0 5.11 9.96 5.6 5.6 0 1 0-5.11-9.96z" fill="rgba(241, 241, 241, 0.18)"></path><path d="M411.48 392.07L420.07 382.57 431.22 388.86 439.81 379.36 450.96 385.65 459.55 376.15 470.7 382.44" stroke="rgba(241, 241, 241, 0.18)" stroke-width="1.96" stroke-dasharray="3, 3"></path><circle r="50" cx="27.4" cy="217.89" fill="rgba(241, 241, 241, 0.18)"></circle><path d="M248.64 278.29a5.6 5.6 0 1 0-1.73-11.07 5.6 5.6 0 1 0 1.73 11.07zM246.16 262.48a5.6 5.6 0 1 0-1.73-11.06 5.6 5.6 0 1 0 1.73 11.06zM243.68 246.67a5.6 5.6 0 1 0-1.74-11.06 5.6 5.6 0 1 0 1.74 11.06zM241.2 230.87a5.6 5.6 0 1 0-1.74-11.07 5.6 5.6 0 1 0 1.74 11.07z" fill="rgba(241, 241, 241, 0.18)"></path></g><defs><mask id="SvgjsMask15461"><rect width="1000" height="600" fill="#ffffff"></rect></mask><pattern x="0" y="0" width="11.16" height="11.16" patternUnits="userSpaceOnUse" id="SvgjsPattern15463"><path d="M5.58 1L5.58 10.16M1 5.58L10.16 5.58" stroke="rgba(241, 241, 241, 0.18)" fill="none" stroke-width="1"></path></pattern><clipPath id="SvgjsClipPath15462"><circle r="44.64" cx="350.9" cy="375.29"></circle></clipPath><pattern x="0" y="0" width="6.32" height="6.32" patternUnits="userSpaceOnUse" id="SvgjsPattern15465"><path d="M0 6.32L3.16 0L6.32 6.32" stroke="rgba(241, 241, 241, 0.18)" fill="none"></path></pattern><clipPath id="SvgjsClipPath15464"><circle r="60.040000000000006" cx="138.52" cy="448.22"></circle></clipPath><pattern x="0" y="0" width="183" height="6.1" patternUnits="userSpaceOnUse" id="SvgjsPattern15467"><rect width="183" height="3.05" x="0" y="0" fill="rgba(241, 241, 241, 0.18)"></rect><rect width="183" height="3.05" x="0" y="3.05" fill="rgba(0, 0, 0, 0)"></rect></pattern><clipPath id="SvgjsClipPath15466"><circle r="45.75" cx="145.81" cy="519.62"></circle></clipPath><pattern x="0" y="0" width="60" height="6" patternUnits="userSpaceOnUse" id="SvgjsPattern15469"><rect width="60" height="3" x="0" y="0" fill="rgba(241, 241, 241, 0.18)"></rect><rect width="60" height="3" x="0" y="3" fill="rgba(0, 0, 0, 0)"></rect></pattern><clipPath id="SvgjsClipPath15468"><circle r="15" cx="713.77" cy="137.58"></circle></clipPath></defs></svg>