<svg xmlns="http://www.w3.org/2000/svg" version="1.1" xmlns:xlink="http://www.w3.org/1999/xlink" xmlns:svgjs="http://svgjs.com/svgjs" width="700" height="700" preserveAspectRatio="none" viewBox="0 0 700 700"><g mask="url(&quot;#SvgjsMask29795&quot;)" fill="none"><rect width="75" height="75" clip-path="url(&quot;#SvgjsClipPath29796&quot;)" x="130.55" y="-18.19" fill="url(#SvgjsPattern29797)" transform="rotate(250.62, 168.05, 19.31)"></rect><rect width="245.6" height="245.6" clip-path="url(&quot;#SvgjsClipPath29798&quot;)" x="17.59" y="101" fill="url(#SvgjsPattern29799)" transform="rotate(11.16, 140.39, 223.8)"></rect><circle r="112.7285413321734" cx="457.88" cy="306.92" stroke="rgba(255, 0, 0, 0.17)" stroke-width="2.37"></circle><rect width="60" height="60" clip-path="url(&quot;#SvgjsClipPath29800&quot;)" x="161.84" y="456.56" fill="url(#SvgjsPattern29801)" transform="rotate(245.95, 191.84, 486.56)"></rect><rect width="122.8" height="122.8" clip-path="url(&quot;#SvgjsClipPath29802&quot;)" x="243.74" y="-1.13" fill="url(#SvgjsPattern29803)" transform="rotate(291.45, 305.14, 60.27)"></rect></g><defs><mask id="SvgjsMask29795"><rect width="700" height="700" fill="#ffffff"></rect></mask><pattern x="0" y="0" width="75" height="7.5" patternUnits="userSpaceOnUse" id="SvgjsPattern29797"><rect width="75" height="3.75" x="0" y="0" fill="rgba(255, 0, 0, 0.17)"></rect><rect width="75" height="3.75" x="0" y="3.75" fill="rgba(0, 0, 0, 0)"></rect></pattern><clipPath id="SvgjsClipPath29796"><circle r="18.75" cx="168.05" cy="19.31"></circle></clipPath><pattern x="0" y="0" width="12.28" height="12.28" patternUnits="userSpaceOnUse" id="SvgjsPattern29799"><path d="M0 12.28L6.14 0L12.28 12.28" stroke="rgba(255, 0, 0, 0.17)" fill="none"></path></pattern><clipPath id="SvgjsClipPath29798"><circle r="61.4" cx="140.39" cy="223.8"></circle></clipPath><pattern x="0" y="0" width="60" height="6" patternUnits="userSpaceOnUse" id="SvgjsPattern29801"><rect width="60" height="3" x="0" y="0" fill="rgba(255, 0, 0, 0.17)"></rect><rect width="60" height="3" x="0" y="3" fill="rgba(0, 0, 0, 0)"></rect></pattern><clipPath id="SvgjsClipPath29800"><circle r="15" cx="191.84" cy="486.56"></circle></clipPath><pattern x="0" y="0" width="12.28" height="12.28" patternUnits="userSpaceOnUse" id="SvgjsPattern29803"><path d="M6.14 1L6.14 11.28M1 6.14L11.28 6.14" stroke="rgba(255, 0, 0, 0.17)" fill="none" stroke-width="2.05"></path></pattern><clipPath id="SvgjsClipPath29802"><circle r="30.7" cx="305.14" cy="60.27"></circle></clipPath></defs></svg>