<svg xmlns="http://www.w3.org/2000/svg" version="1.1" xmlns:xlink="http://www.w3.org/1999/xlink" xmlns:svgjs="http://svgjs.com/svgjs" width="300" height="1200" preserveAspectRatio="none" viewBox="0 0 300 1200"><g mask="url(&quot;#SvgjsMask46882&quot;)" fill="none"><path d="M232.12 494.68a5.6 5.6 0 1 0 5.01-10.02 5.6 5.6 0 1 0-5.01 10.02zM239.27 480.37a5.6 5.6 0 1 0 5-10.02 5.6 5.6 0 1 0-5 10.02zM246.42 466.05a5.6 5.6 0 1 0 5-10.02 5.6 5.6 0 1 0-5 10.02zM253.57 451.74a5.6 5.6 0 1 0 5-10.02 5.6 5.6 0 1 0-5 10.02zM232.14 530.46a5.6 5.6 0 1 0 5-10.02 5.6 5.6 0 1 0-5 10.02zM239.29 516.14a5.6 5.6 0 1 0 5-10.02 5.6 5.6 0 1 0-5 10.02zM246.44 501.83a5.6 5.6 0 1 0 5-10.02 5.6 5.6 0 1 0-5 10.02zM253.58 487.52a5.6 5.6 0 1 0 5.01-10.02 5.6 5.6 0 1 0-5.01 10.02z" stroke="rgba(255, 0, 0, 0.17)" stroke-width="2.48" stroke-dasharray="2, 2"></path><rect width="168" height="168" clip-path="url(&quot;#SvgjsClipPath46883&quot;)" x="-7.55" y="799.4" fill="url(#SvgjsPattern46884)" transform="rotate(72.08, 76.45, 883.4)"></rect><path d="M297.71 183.04L285.16 180.49 284.89 167.69 272.34 165.14 272.08 152.34 259.53 149.78 259.26 136.98M303.85 177.92L291.3 175.37 291.04 162.56 278.49 160.01 278.22 147.21 265.67 144.66 265.4 131.85" stroke="rgba(255, 0, 0, 0.17)" stroke-width="1.4" stroke-dasharray="2, 2"></path><circle r="25" cx="282.64" cy="1055.15" fill="rgba(255, 0, 0, 0.17)"></circle><rect width="144" height="144" clip-path="url(&quot;#SvgjsClipPath46885&quot;)" x="87.45" y="44.94" fill="url(#SvgjsPattern46886)" transform="rotate(329.37, 159.45, 116.94)"></rect><path d="M300.67 22.19a5.6 5.6 0 1 0-1.94-11.03 5.6 5.6 0 1 0 1.94 11.03zM297.9 6.43a5.6 5.6 0 1 0-1.94-11.03 5.6 5.6 0 1 0 1.94 11.03zM295.13-9.33a5.6 5.6 0 1 0-1.94-11.03 5.6 5.6 0 1 0 1.94 11.03zM292.36-25.08a5.6 5.6 0 1 0-1.94-11.03 5.6 5.6 0 1 0 1.94 11.03z" stroke="rgba(255, 0, 0, 0.17)" stroke-width="2.63" stroke-dasharray="3, 3"></path><path d="M193.93 431.78L196.66 419.27 209.47 419.19 212.19 406.67 225 406.59 227.73 394.08 240.53 393.99" stroke="rgba(255, 0, 0, 0.17)" stroke-width="2.84" stroke-dasharray="2, 2"></path><rect width="133.8" height="133.8" clip-path="url(&quot;#SvgjsClipPath46887&quot;)" x="85.11" y="964.22" fill="url(#SvgjsPattern46888)" transform="rotate(150.27, 152.01, 1031.12)"></rect><rect width="130.2" height="130.2" clip-path="url(&quot;#SvgjsClipPath46889&quot;)" x="-12.74" y="525.39" fill="url(#SvgjsPattern46890)" transform="rotate(211.85, 52.36, 590.49)"></rect><rect width="60" height="60" clip-path="url(&quot;#SvgjsClipPath46891&quot;)" x="84.77" y="602.3" fill="url(#SvgjsPattern46892)" transform="rotate(280.83, 114.77, 632.3)"></rect><path d="M20.49 1034.67a5.6 5.6 0 1 0-5.61-9.7 5.6 5.6 0 1 0 5.61 9.7zM12.48 1020.82a5.6 5.6 0 1 0-5.61-9.7 5.6 5.6 0 1 0 5.61 9.7zM4.47 1006.97a5.6 5.6 0 1 0-5.61-9.7 5.6 5.6 0 1 0 5.61 9.7zM-3.54 993.12a5.6 5.6 0 1 0-5.61-9.7 5.6 5.6 0 1 0 5.61 9.7zM50.36 1054.36a5.6 5.6 0 1 0-5.61-9.69 5.6 5.6 0 1 0 5.61 9.69zM42.35 1040.51a5.6 5.6 0 1 0-5.61-9.69 5.6 5.6 0 1 0 5.61 9.69zM34.34 1026.66a5.6 5.6 0 1 0-5.61-9.7 5.6 5.6 0 1 0 5.61 9.7zM26.33 1012.81a5.6 5.6 0 1 0-5.61-9.7 5.6 5.6 0 1 0 5.61 9.7z" stroke="rgba(255, 0, 0, 0.17)" stroke-width="1.2" stroke-dasharray="2, 2"></path><circle r="32.18676132210366" cx="28.33" cy="541.74" stroke="rgba(255, 0, 0, 0.17)" stroke-width="1" stroke-dasharray="4, 4"></circle><path d="M288.31 98.83 L303.58 143.07L322.1152938867397 94.77970611326023z" stroke="rgba(255, 0, 0, 0.17)" stroke-width="2.92" stroke-dasharray="2, 2"></path><rect width="132" height="132" clip-path="url(&quot;#SvgjsClipPath46893&quot;)" x="-15.97" y="532.85" fill="url(#SvgjsPattern46894)" transform="rotate(234.86, 50.03, 598.85)"></rect><path d="M134.01 467.97 L160.49 440.19L169.2450267623512 476.07502676235123z" fill="rgba(255, 0, 0, 0.17)"></path><path d="M59.91 1138.05 L67.46000000000001 1192.02L40.30922252568973 1188.4107774743102z" fill="rgba(255, 0, 0, 0.17)"></path><circle r="41.67748222004263" cx="159.77" cy="845.97" stroke="rgba(255, 0, 0, 0.17)" stroke-width="1.87" stroke-dasharray="3, 3"></circle><rect width="86.8" height="86.8" clip-path="url(&quot;#SvgjsClipPath46895&quot;)" x="-25.37" y="1046.93" fill="url(#SvgjsPattern46896)" transform="rotate(148.26, 18.03, 1090.33)"></rect></g><defs><mask id="SvgjsMask46882"><rect width="300" height="1200" fill="#ffffff"></rect></mask><pattern x="0" y="0" width="6" height="6" patternUnits="userSpaceOnUse" id="SvgjsPattern46884"><path d="M0 6L3 0L6 6" stroke="rgba(255, 0, 0, 0.17)" fill="none"></path></pattern><clipPath id="SvgjsClipPath46883"><circle r="42" cx="76.45" cy="883.4"></circle></clipPath><pattern x="0" y="0" width="6" height="6" patternUnits="userSpaceOnUse" id="SvgjsPattern46886"><path d="M0 6L3 0L6 6" stroke="rgba(255, 0, 0, 0.17)" fill="none"></path></pattern><clipPath id="SvgjsClipPath46885"><circle r="36" cx="159.45" cy="116.94"></circle></clipPath><pattern x="0" y="0" width="13.38" height="13.38" patternUnits="userSpaceOnUse" id="SvgjsPattern46888"><path d="M6.69 1L6.69 12.38M1 6.69L12.38 6.69" stroke="rgba(255, 0, 0, 0.17)" fill="none" stroke-width="1.58"></path></pattern><clipPath id="SvgjsClipPath46887"><circle r="33.45" cx="152.01" cy="1031.12"></circle></clipPath><pattern x="0" y="0" width="13.02" height="13.02" patternUnits="userSpaceOnUse" id="SvgjsPattern46890"><path d="M0 13.02L6.51 0L13.02 13.02" stroke="rgba(255, 0, 0, 0.17)" fill="none"></path></pattern><clipPath id="SvgjsClipPath46889"><circle r="32.55" cx="52.36" cy="590.49"></circle></clipPath><pattern x="0" y="0" width="6" height="6" patternUnits="userSpaceOnUse" id="SvgjsPattern46892"><path d="M3 1L3 5M1 3L5 3" stroke="rgba(255, 0, 0, 0.17)" fill="none" stroke-width="1.42"></path></pattern><clipPath id="SvgjsClipPath46891"><circle r="15" cx="114.77" cy="632.3"></circle></clipPath><pattern x="0" y="0" width="6" height="6" patternUnits="userSpaceOnUse" id="SvgjsPattern46894"><path d="M0 6L3 0L6 6" stroke="rgba(255, 0, 0, 0.17)" fill="none"></path></pattern><clipPath id="SvgjsClipPath46893"><circle r="33" cx="50.03" cy="598.85"></circle></clipPath><pattern x="0" y="0" width="86.8" height="8.68" patternUnits="userSpaceOnUse" id="SvgjsPattern46896"><rect width="86.8" height="4.34" x="0" y="0" fill="rgba(255, 0, 0, 0.17)"></rect><rect width="86.8" height="4.34" x="0" y="4.34" fill="rgba(0, 0, 0, 0)"></rect></pattern><clipPath id="SvgjsClipPath46895"><circle r="21.7" cx="18.03" cy="1090.33"></circle></clipPath></defs></svg>