<svg xmlns="http://www.w3.org/2000/svg" version="1.1" xmlns:xlink="http://www.w3.org/1999/xlink" xmlns:svgjs="http://svgjs.com/svgjs" width="1000" height="400" preserveAspectRatio="none" viewBox="0 0 1000 400"><g mask="url(&quot;#SvgjsMask35541&quot;)" fill="none"><path d="M600.52 360.45 L614.81 419.34000000000003L565.0895298811711 432.47047011882887z" fill="rgba(255, 0, 0, 0.17)"></path><rect width="127.6" height="127.6" clip-path="url(&quot;#SvgjsClipPath35542&quot;)" x="521.52" y="228.62" fill="url(#SvgjsPattern35543)" transform="rotate(336.77, 585.32, 292.42)"></rect><rect width="112.4" height="112.4" clip-path="url(&quot;#SvgjsClipPath35544&quot;)" x="806.83" y="103.88" fill="url(#SvgjsPattern35545)" transform="rotate(32.35, 863.03, 160.08)"></rect><rect width="60" height="60" clip-path="url(&quot;#SvgjsClipPath35546&quot;)" x="286.62" y="88.28" fill="url(#SvgjsPattern35547)" transform="rotate(337.25, 316.62, 118.28)"></rect><path d="M482.85 138.5a5.6 5.6 0 1 0 4.39-10.3 5.6 5.6 0 1 0-4.39 10.3zM489.12 123.78a5.6 5.6 0 1 0 4.39-10.3 5.6 5.6 0 1 0-4.39 10.3zM495.4 109.06a5.6 5.6 0 1 0 4.39-10.3 5.6 5.6 0 1 0-4.39 10.3zM501.67 94.35a5.6 5.6 0 1 0 4.39-10.31 5.6 5.6 0 1 0-4.39 10.31zM485.01 174.21a5.6 5.6 0 1 0 4.4-10.3 5.6 5.6 0 1 0-4.4 10.3zM491.29 159.49a5.6 5.6 0 1 0 4.39-10.3 5.6 5.6 0 1 0-4.39 10.3zM497.56 144.78a5.6 5.6 0 1 0 4.4-10.31 5.6 5.6 0 1 0-4.4 10.31zM503.84 130.06a5.6 5.6 0 1 0 4.39-10.31 5.6 5.6 0 1 0-4.39 10.31zM487.18 209.92a5.6 5.6 0 1 0 4.4-10.3 5.6 5.6 0 1 0-4.4 10.3zM493.46 195.21a5.6 5.6 0 1 0 4.39-10.31 5.6 5.6 0 1 0-4.39 10.31zM499.73 180.49a5.6 5.6 0 1 0 4.4-10.31 5.6 5.6 0 1 0-4.4 10.31zM506.01 165.77a5.6 5.6 0 1 0 4.39-10.3 5.6 5.6 0 1 0-4.39 10.3z" fill="rgba(255, 0, 0, 0.17)"></path><rect width="144" height="144" clip-path="url(&quot;#SvgjsClipPath35548&quot;)" x="128.81" y="123.46" fill="url(#SvgjsPattern35549)" transform="rotate(34.96, 200.81, 195.46)"></rect><path d="M708.11 14.77L716.03 24.83 707.95 34.77 715.87 44.83 707.79 54.76 715.71 64.83 707.63 74.76M700.11 14.7L708.03 24.77 699.95 34.7 707.87 44.77 699.79 54.7 707.71 64.76 699.63 74.7M692.11 14.64L700.03 24.7 691.95 34.64 699.87 44.7 691.79 54.64 699.71 64.7 691.63 74.64" stroke="rgba(255, 0, 0, 0.17)" stroke-width="1.77" stroke-dasharray="3, 2"></path><rect width="135.39999999999998" height="135.39999999999998" clip-path="url(&quot;#SvgjsClipPath35550&quot;)" x="740.26" y="297.88" fill="url(#SvgjsPattern35551)" transform="rotate(179.32, 807.96, 365.58)"></rect><path d="M849.25 208.52 L775.73 271.88L762.5338334770116 190.24383347701158z" stroke="rgba(255, 0, 0, 0.17)" stroke-width="2.92" stroke-dasharray="2, 2"></path><path d="M981.09 303.46a5.6 5.6 0 1 0 2.95-10.81 5.6 5.6 0 1 0-2.95 10.81zM985.31 288.02a5.6 5.6 0 1 0 2.95-10.8 5.6 5.6 0 1 0-2.95 10.8zM989.52 272.59a5.6 5.6 0 1 0 2.95-10.8 5.6 5.6 0 1 0-2.95 10.8zM993.74 257.16a5.6 5.6 0 1 0 2.95-10.81 5.6 5.6 0 1 0-2.95 10.81zM988.09 338.54a5.6 5.6 0 1 0 2.95-10.8 5.6 5.6 0 1 0-2.95 10.8zM992.31 323.11a5.6 5.6 0 1 0 2.95-10.8 5.6 5.6 0 1 0-2.95 10.8zM996.52 307.68a5.6 5.6 0 1 0 2.96-10.81 5.6 5.6 0 1 0-2.96 10.81zM1000.74 292.24a5.6 5.6 0 1 0 2.95-10.8 5.6 5.6 0 1 0-2.95 10.8zM995.09 373.63a5.6 5.6 0 1 0 2.95-10.8 5.6 5.6 0 1 0-2.95 10.8zM999.31 358.19a5.6 5.6 0 1 0 2.95-10.8 5.6 5.6 0 1 0-2.95 10.8zM1003.53 342.76a5.6 5.6 0 1 0 2.95-10.8 5.6 5.6 0 1 0-2.95 10.8zM1007.74 327.33a5.6 5.6 0 1 0 2.95-10.81 5.6 5.6 0 1 0-2.95 10.81z" stroke="rgba(255, 0, 0, 0.17)" stroke-width="1.01"></path><rect width="204" height="204" clip-path="url(&quot;#SvgjsClipPath35552&quot;)" x="672.14" y="149.03" fill="url(#SvgjsPattern35553)" transform="rotate(267.28, 774.14, 251.03)"></rect><rect width="228" height="228" clip-path="url(&quot;#SvgjsClipPath35554&quot;)" x="33.8" y="248.62" fill="url(#SvgjsPattern35555)" transform="rotate(95.53, 147.8, 362.62)"></rect></g><defs><mask id="SvgjsMask35541"><rect width="1000" height="400" fill="#ffffff"></rect></mask><pattern x="0" y="0" width="12.76" height="12.76" patternUnits="userSpaceOnUse" id="SvgjsPattern35543"><path d="M0 12.76L6.38 0L12.76 12.76" stroke="rgba(255, 0, 0, 0.17)" fill="none"></path></pattern><clipPath id="SvgjsClipPath35542"><circle r="31.9" cx="585.32" cy="292.42"></circle></clipPath><pattern x="0" y="0" width="11.24" height="11.24" patternUnits="userSpaceOnUse" id="SvgjsPattern35545"><path d="M5.62 1L5.62 10.24M1 5.62L10.24 5.62" stroke="rgba(255, 0, 0, 0.17)" fill="none" stroke-width="2.79"></path></pattern><clipPath id="SvgjsClipPath35544"><circle r="28.1" cx="863.03" cy="160.08"></circle></clipPath><pattern x="0" y="0" width="6" height="6" patternUnits="userSpaceOnUse" id="SvgjsPattern35547"><path d="M0 6L3 0L6 6" stroke="rgba(255, 0, 0, 0.17)" fill="none"></path></pattern><clipPath id="SvgjsClipPath35546"><circle r="15" cx="316.62" cy="118.28"></circle></clipPath><pattern x="0" y="0" width="6" height="6" patternUnits="userSpaceOnUse" id="SvgjsPattern35549"><path d="M0 6L3 0L6 6" stroke="rgba(255, 0, 0, 0.17)" fill="none"></path></pattern><clipPath id="SvgjsClipPath35548"><circle r="36" cx="200.81" cy="195.46"></circle></clipPath><pattern x="0" y="0" width="13.54" height="13.54" patternUnits="userSpaceOnUse" id="SvgjsPattern35551"><path d="M0 13.54L6.77 0L13.54 13.54" stroke="rgba(255, 0, 0, 0.17)" fill="none"></path></pattern><clipPath id="SvgjsClipPath35550"><circle r="33.849999999999994" cx="807.96" cy="365.58"></circle></clipPath><pattern x="0" y="0" width="6" height="6" patternUnits="userSpaceOnUse" id="SvgjsPattern35553"><path d="M3 1L3 5M1 3L5 3" stroke="rgba(255, 0, 0, 0.17)" fill="none" stroke-width="1.99"></path></pattern><clipPath id="SvgjsClipPath35552"><circle r="51" cx="774.14" cy="251.03"></circle></clipPath><pattern x="0" y="0" width="228" height="6" patternUnits="userSpaceOnUse" id="SvgjsPattern35555"><rect width="228" height="3" x="0" y="0" fill="rgba(255, 0, 0, 0.17)"></rect><rect width="228" height="3" x="0" y="3" fill="rgba(0, 0, 0, 0)"></rect></pattern><clipPath id="SvgjsClipPath35554"><circle r="57" cx="147.8" cy="362.62"></circle></clipPath></defs></svg>